<svg width="14" height="14" viewBox="0 0 14 14" fill="none" xmlns="http://www.w3.org/2000/svg">
<g clip-path="url(#clip0_19014_27239)">
<path d="M9.07465 7.9106L8.23465 8.75001L9.07465 9.58943C9.23879 9.75358 9.33101 9.97621 9.33101 10.2083C9.33101 10.4405 9.23879 10.6631 9.07465 10.8273C8.9105 10.9914 8.68787 11.0836 8.45573 11.0836C8.22359 11.0836 8.00096 10.9914 7.83681 10.8273L6.9974 9.98726L6.15798 10.8273C5.99383 10.9914 5.7712 11.0836 5.53906 11.0836C5.30692 11.0836 5.08429 10.9914 4.92015 10.8273C4.756 10.6631 4.66378 10.4405 4.66378 10.2083C4.66378 9.97621 4.756 9.75358 4.92015 9.58943L5.76015 8.75001L4.92015 7.9106C4.756 7.74645 4.66378 7.52382 4.66378 7.29168C4.66378 7.05954 4.756 6.83691 4.92015 6.67276C5.08429 6.50862 5.30692 6.4164 5.53906 6.4164C5.7712 6.4164 5.99383 6.50862 6.15798 6.67276L6.9974 7.51276L7.83681 6.67276C7.91809 6.59149 8.01458 6.52701 8.12077 6.48303C8.22697 6.43904 8.34079 6.4164 8.45573 6.4164C8.57067 6.4164 8.68449 6.43904 8.79069 6.48303C8.89688 6.52701 8.99337 6.59149 9.07465 6.67276C9.15592 6.75404 9.2204 6.85053 9.26438 6.95672C9.30837 7.06292 9.33101 7.17674 9.33101 7.29168C9.33101 7.40662 9.30837 7.52044 9.26438 7.62663C9.2204 7.73283 9.15592 7.82932 9.07465 7.9106ZM12.8307 4.75826V10.7917C12.8298 11.6423 12.4915 12.4578 11.89 13.0593C11.2885 13.6608 10.473 13.9991 9.6224 14H4.3724C3.52178 13.9991 2.70626 13.6608 2.10478 13.0593C1.50331 12.4578 1.16499 11.6423 1.16406 10.7917V3.20835C1.16499 2.35773 1.50331 1.54221 2.10478 0.940734C2.70626 0.339255 3.52178 0.000938041 4.3724 1.1609e-05H8.07248C8.49397 -0.00112593 8.9115 0.0813462 9.3009 0.242654C9.6903 0.403963 10.0438 0.640903 10.3411 0.939762L11.891 2.48968C12.1898 2.7869 12.4268 3.14044 12.5881 3.52984C12.7494 3.91924 12.8319 4.33677 12.8307 4.75826ZM11.0807 10.7917V5.25001H8.7474C8.43798 5.25001 8.14123 5.1271 7.92244 4.9083C7.70365 4.68951 7.58073 4.39276 7.58073 4.08335V1.75001H4.3724C3.98562 1.75001 3.61469 1.90366 3.3412 2.17715C3.06771 2.45064 2.91406 2.82157 2.91406 3.20835V10.7917C2.91406 11.1785 3.06771 11.5494 3.3412 11.8229C3.61469 12.0964 3.98562 12.25 4.3724 12.25H9.6224C10.0092 12.25 10.3801 12.0964 10.6536 11.8229C10.9271 11.5494 11.0807 11.1785 11.0807 10.7917Z" fill="#67686D"/>
</g>
<defs>
<clipPath id="clip0_19014_27239">
<rect width="14" height="14" fill="white"/>
</clipPath>
</defs>
</svg>
