<svg width="14" height="14" viewBox="0 0 14 14" fill="none" xmlns="http://www.w3.org/2000/svg">
<g clip-path="url(#clip0_19014_31009)">
<path d="M13.1613 4.95834C13.5647 4.54909 13.8381 4.02965 13.947 3.4654C14.056 2.90114 13.9956 2.31726 13.7735 1.78724C13.5514 1.25722 13.1775 0.804735 12.6988 0.486717C12.2201 0.168698 11.6581 -0.000642628 11.0834 1.83264e-06H2.91676C2.34208 -0.000642628 1.78005 0.168698 1.30139 0.486717C0.822723 0.804735 0.448812 1.25722 0.226702 1.78724C0.00459239 2.31726 -0.0557927 2.90114 0.0531451 3.4654C0.162083 4.02965 0.435477 4.54909 0.838925 4.95834C0.301444 5.50193 0 6.23555 0 7C0 7.76445 0.301444 8.49807 0.838925 9.04167C0.435477 9.45092 0.162083 9.97035 0.0531451 10.5346C-0.0557927 11.0989 0.00459239 11.6827 0.226702 12.2128C0.448812 12.7428 0.822723 13.1953 1.30139 13.5133C1.78005 13.8313 2.34208 14.0006 2.91676 14H11.0834C11.6581 14.0006 12.2201 13.8313 12.6988 13.5133C13.1775 13.1953 13.5514 12.7428 13.7735 12.2128C13.9956 11.6827 14.056 11.0989 13.947 10.5346C13.8381 9.97035 13.5647 9.45092 13.1613 9.04167C13.6987 8.49807 14.0002 7.76445 14.0002 7C14.0002 6.23555 13.6987 5.50193 13.1613 4.95834ZM2.91676 8.16667C2.60734 8.16667 2.31059 8.04375 2.0918 7.82496C1.87301 7.60617 1.75009 7.30942 1.75009 7C1.75009 6.69058 1.87301 6.39384 2.0918 6.17504C2.31059 5.95625 2.60734 5.83334 2.91676 5.83334V6.125C2.91676 6.35707 3.00895 6.57963 3.17304 6.74372C3.33713 6.90781 3.55969 7 3.79176 7C4.02382 7 4.24638 6.90781 4.41048 6.74372C4.57457 6.57963 4.66676 6.35707 4.66676 6.125V5.83334H5.83343V6.125C5.83343 6.35707 5.92561 6.57963 6.08971 6.74372C6.2538 6.90781 6.47636 7 6.70843 7C6.94049 7 7.16305 6.90781 7.32714 6.74372C7.49124 6.57963 7.58343 6.35707 7.58343 6.125V5.83334H11.0834C11.3928 5.83334 11.6896 5.95625 11.9084 6.17504C12.1272 6.39384 12.2501 6.69058 12.2501 7C12.2501 7.30942 12.1272 7.60617 11.9084 7.82496C11.6896 8.04375 11.3928 8.16667 11.0834 8.16667H2.91676ZM2.91676 1.75V2.04167C2.91676 2.27373 3.00895 2.49629 3.17304 2.66039C3.33713 2.82448 3.55969 2.91667 3.79176 2.91667C4.02382 2.91667 4.24638 2.82448 4.41048 2.66039C4.57457 2.49629 4.66676 2.27373 4.66676 2.04167V1.75H5.83343V2.04167C5.83343 2.27373 5.92561 2.49629 6.08971 2.66039C6.2538 2.82448 6.47636 2.91667 6.70843 2.91667C6.94049 2.91667 7.16305 2.82448 7.32714 2.66039C7.49124 2.49629 7.58343 2.27373 7.58343 2.04167V1.75H11.0834C11.3928 1.75 11.6896 1.87292 11.9084 2.09171C12.1272 2.3105 12.2501 2.60725 12.2501 2.91667C12.2501 3.22609 12.1272 3.52283 11.9084 3.74163C11.6896 3.96042 11.3928 4.08334 11.0834 4.08334H2.91676C2.60734 4.08334 2.31059 3.96042 2.0918 3.74163C1.87301 3.52283 1.75009 3.22609 1.75009 2.91667C1.75009 2.60725 1.87301 2.3105 2.0918 2.09171C2.31059 1.87292 2.60734 1.75 2.91676 1.75ZM11.0834 12.25H2.91676C2.60734 12.25 2.31059 12.1271 2.0918 11.9083C1.87301 11.6895 1.75009 11.3928 1.75009 11.0833C1.75009 10.7739 1.87301 10.4772 2.0918 10.2584C2.31059 10.0396 2.60734 9.91667 2.91676 9.91667V10.2083C2.91676 10.4404 3.00895 10.663 3.17304 10.8271C3.33713 10.9911 3.55969 11.0833 3.79176 11.0833C4.02382 11.0833 4.24638 10.9911 4.41048 10.8271C4.57457 10.663 4.66676 10.4404 4.66676 10.2083V9.91667H5.83343V10.2083C5.83343 10.4404 5.92561 10.663 6.08971 10.8271C6.2538 10.9911 6.47636 11.0833 6.70843 11.0833C6.94049 11.0833 7.16305 10.9911 7.32714 10.8271C7.49124 10.663 7.58343 10.4404 7.58343 10.2083V9.91667H11.0834C11.3928 9.91667 11.6896 10.0396 11.9084 10.2584C12.1272 10.4772 12.2501 10.7739 12.2501 11.0833C12.2501 11.3928 12.1272 11.6895 11.9084 11.9083C11.6896 12.1271 11.3928 12.25 11.0834 12.25Z" fill="#67686D"/>
</g>
<defs>
<clipPath id="clip0_19014_31009">
<rect width="14" height="14" fill="white"/>
</clipPath>
</defs>
</svg>
