<svg width="14" height="14" viewBox="0 0 14 14" fill="none" xmlns="http://www.w3.org/2000/svg">
<g clip-path="url(#clip0_19014_31033)">
<path d="M5.54167 14H0.875C0.642936 14 0.420376 13.9078 0.256282 13.7437C0.0921872 13.5796 0 13.3571 0 13.125C0 12.8929 0.0921872 12.6704 0.256282 12.5063C0.420376 12.3422 0.642936 12.25 0.875 12.25H5.54167C5.77373 12.25 5.99629 12.3422 6.16039 12.5063C6.32448 12.6704 6.41667 12.8929 6.41667 13.125C6.41667 13.3571 6.32448 13.5796 6.16039 13.7437C5.99629 13.9078 5.77373 14 5.54167 14Z" fill="#67686D"/>
<path d="M4.375 11.084H0.875C0.642936 11.084 0.420376 10.9918 0.256282 10.8277C0.0921872 10.6636 0 10.441 0 10.209C0 9.97692 0.0921872 9.75436 0.256282 9.59027C0.420376 9.42617 0.642936 9.33398 0.875 9.33398H4.375C4.60706 9.33398 4.82962 9.42617 4.99372 9.59027C5.15781 9.75436 5.25 9.97692 5.25 10.209C5.25 10.441 5.15781 10.6636 4.99372 10.8277C4.82962 10.9918 4.60706 11.084 4.375 11.084Z" fill="#67686D"/>
<path d="M3.20833 8.16602H0.875C0.642936 8.16602 0.420376 8.07383 0.256282 7.90973C0.0921872 7.74564 0 7.52308 0 7.29102C0 7.05895 0.0921872 6.83639 0.256282 6.6723C0.420376 6.5082 0.642936 6.41602 0.875 6.41602H3.20833C3.4404 6.41602 3.66296 6.5082 3.82705 6.6723C3.99115 6.83639 4.08333 7.05895 4.08333 7.29102C4.08333 7.52308 3.99115 7.74564 3.82705 7.90973C3.66296 8.07383 3.4404 8.16602 3.20833 8.16602Z" fill="#67686D"/>
<path d="M8.4629 13.8376C8.24869 13.8379 8.04184 13.7595 7.88154 13.6174C7.72125 13.4753 7.61866 13.2793 7.59321 13.0666C7.56775 12.8539 7.6212 12.6393 7.74344 12.4634C7.86567 12.2874 8.04818 12.1625 8.2564 12.1121C9.11925 11.9006 9.91451 11.4741 10.5681 10.8723C11.2216 10.2706 11.7122 9.51315 11.9941 8.67065C12.276 7.82816 12.3401 6.92802 12.1803 6.0541C12.0205 5.18019 11.6421 4.36094 11.0803 3.67271C10.5185 2.98448 9.79166 2.44966 8.96744 2.1181C8.14323 1.78654 7.2485 1.66902 6.36662 1.77649C5.48474 1.88397 4.64442 2.21294 3.92396 2.73275C3.2035 3.25256 2.62636 3.9463 2.24632 4.74931C2.14496 4.95567 1.96645 5.11384 1.7494 5.18964C1.53235 5.26543 1.29418 5.25275 1.0864 5.15434C0.878619 5.05593 0.717918 4.8797 0.639043 4.66374C0.560168 4.44779 0.569456 4.20947 0.664899 4.00031C1.17133 2.92992 1.94053 2.00517 2.9008 1.31229C3.86108 0.61941 4.98115 0.180948 6.15662 0.0377792C7.33208 -0.105389 8.52465 0.0513977 9.62317 0.493524C10.7217 0.935651 11.6904 1.64872 12.4389 2.56626C13.1875 3.4838 13.6915 4.57594 13.9041 5.74085C14.1166 6.90577 14.0308 8.10554 13.6545 9.22832C13.2782 10.3511 12.6238 11.3603 11.7522 12.1619C10.8806 12.9635 9.82026 13.5314 8.66998 13.8126C8.60219 13.8291 8.53268 13.8375 8.4629 13.8376Z" fill="#67686D"/>
<path d="M7.28906 3.5C7.057 3.5 6.83444 3.59219 6.67034 3.75628C6.50625 3.92038 6.41406 4.14293 6.41406 4.375V6.87925C6.41413 7.18864 6.53709 7.48534 6.7559 7.70408L7.80181 8.74999C7.96684 8.90938 8.18786 8.99758 8.41729 8.99558C8.64671 8.99359 8.86617 8.90157 9.0284 8.73933C9.19063 8.5771 9.28265 8.35764 9.28465 8.12822C9.28664 7.8988 9.19845 7.67777 9.03906 7.51274L8.16406 6.63775V4.375C8.16406 4.14293 8.07187 3.92038 7.90778 3.75628C7.74368 3.59219 7.52113 3.5 7.28906 3.5Z" fill="#67686D"/>
</g>
<defs>
<clipPath id="clip0_19014_31033">
<rect width="14" height="14" fill="white"/>
</clipPath>
</defs>
</svg>
