<svg width="24" height="24" viewBox="0 0 24 24" fill="none" xmlns="http://www.w3.org/2000/svg">
<g clip-path="url(#clip0_19014_26688)">
<path d="M4.87675 5.60635L0.957748 9.52535C0.321373 10.1922 -0.0336838 11.0786 -0.0336838 12.0004C-0.0336838 12.9221 0.321373 13.8085 0.957748 14.4754L4.87675 18.3944C5.15801 18.6758 5.53954 18.8339 5.9374 18.834C6.33525 18.8341 6.71685 18.6761 6.99825 18.3949C7.27964 18.1136 7.43778 17.7321 7.43788 17.3342C7.43797 16.9364 7.28001 16.5548 6.99875 16.2734L4.21875 13.4924L22.4687 13.4694C22.8666 13.4694 23.2481 13.3113 23.5294 13.03C23.8107 12.7487 23.9687 12.3672 23.9687 11.9694C23.9687 11.5715 23.8107 11.19 23.5294 10.9087C23.2481 10.6274 22.8666 10.4694 22.4687 10.4694L4.23775 10.4924L6.99875 7.72735C7.27199 7.44445 7.42318 7.06554 7.41976 6.67225C7.41634 6.27895 7.25859 5.90273 6.98048 5.62462C6.70236 5.34651 6.32615 5.18876 5.93285 5.18534C5.53955 5.18192 5.16065 5.33311 4.87775 5.60635H4.87675Z" fill="#011602"/>
</g>
<defs>
<clipPath id="clip0_19014_26688">
<rect width="24" height="24" fill="white" transform="matrix(-1 0 0 -1 24 24)"/>
</clipPath>
</defs>
</svg>
