<svg width="14" height="14" viewBox="0 0 14 14" fill="none" xmlns="http://www.w3.org/2000/svg">
<g clip-path="url(#clip0_19014_31018)">
<path d="M12.8001 2.93718C12.7762 2.92318 8.60827 0.999355 8.60827 0.999355C7.60738 0.448132 6.39384 0.448132 5.39294 0.999355C5.39294 0.999355 1.22562 2.92318 1.20112 2.93718C0.0851396 3.54467 -0.327067 4.94186 0.280429 6.05784C0.492261 6.447 0.811964 6.76667 1.20112 6.97853C1.22562 6.99253 2.9173 7.77421 2.9173 7.77421V10.5316C2.91894 11.7193 3.69235 12.7681 4.82655 13.1205C5.53295 13.3245 6.2654 13.4241 7.00062 13.4162C7.73587 13.4241 8.4683 13.3245 9.1747 13.1205C10.3089 12.768 11.0823 11.7193 11.0839 10.5316V7.77418L12.2506 7.23633V11.3745C12.2506 11.8577 12.6423 12.2495 13.1256 12.2495C13.6088 12.2495 14.0006 11.8577 14.0006 11.3745V4.93508C13.9775 4.07493 13.5664 3.3105 12.8001 2.93718ZM9.33392 10.5316C9.33605 10.9484 9.06721 11.3184 8.67009 11.4451C7.57643 11.7385 6.42476 11.7385 5.33109 11.4451C4.93395 11.3184 4.66514 10.9484 4.66727 10.5316V8.5815L5.39294 8.91633C6.39348 9.469 7.60773 9.469 8.60827 8.91633L9.33395 8.5815V10.5316H9.33392ZM11.9502 5.44783C11.9502 5.44783 7.79159 7.367 7.76824 7.381C7.29227 7.65171 6.70889 7.65171 6.23292 7.381C6.20959 7.367 2.05099 5.44783 2.05099 5.44783C1.78037 5.30977 1.67291 4.97847 1.81097 4.70785C1.86366 4.60455 1.94769 4.52055 2.05099 4.46783C2.05099 4.46783 6.20957 2.54865 6.23292 2.53465C6.70889 2.26395 7.29227 2.26395 7.76824 2.53465C7.79157 2.54865 11.9502 4.46783 11.9502 4.46783C12.2208 4.60589 12.3282 4.93718 12.1902 5.2078C12.1375 5.31114 12.0535 5.39514 11.9502 5.44783Z" fill="#67686D"/>
</g>
<defs>
<clipPath id="clip0_19014_31018">
<rect width="14" height="14" fill="white"/>
</clipPath>
</defs>
</svg>
