<svg width="14" height="14" viewBox="0 0 14 14" fill="none" xmlns="http://www.w3.org/2000/svg">
<g clip-path="url(#clip0_19014_31015)">
<path d="M11.0807 1.52075V0.875C11.0807 0.642936 10.9885 0.420376 10.8244 0.256282C10.6604 0.0921872 10.4378 0 10.2057 0C9.97367 0 9.75111 0.0921872 9.58701 0.256282C9.42292 0.420376 9.33073 0.642936 9.33073 0.875V1.16667H7.8724V0.875C7.8724 0.642936 7.78021 0.420376 7.61611 0.256282C7.45202 0.0921872 7.22946 0 6.9974 0C6.76533 0 6.54277 0.0921872 6.37868 0.256282C6.21458 0.420376 6.1224 0.642936 6.1224 0.875V1.16667H4.66406V0.875C4.66406 0.642936 4.57188 0.420376 4.40778 0.256282C4.24369 0.0921872 4.02113 0 3.78906 0C3.557 0 3.33444 0.0921872 3.17034 0.256282C3.00625 0.420376 2.91406 0.642936 2.91406 0.875V1.52075C2.38786 1.78928 1.94602 2.19787 1.63723 2.7015C1.32844 3.20513 1.1647 3.78424 1.16406 4.375V10.7917C1.16499 11.6423 1.50331 12.4578 2.10478 13.0593C2.70626 13.6608 3.52178 13.9991 4.3724 14H9.6224C10.473 13.9989 11.2884 13.6606 11.8898 13.0591C12.4913 12.4577 12.8296 11.6422 12.8307 10.7917V4.375C12.8301 3.78424 12.6663 3.20513 12.3576 2.7015C12.0488 2.19787 11.6069 1.78928 11.0807 1.52075ZM11.0807 10.7917C11.0807 11.1784 10.9271 11.5494 10.6536 11.8229C10.3801 12.0964 10.0092 12.25 9.6224 12.25H4.3724C3.98562 12.25 3.61469 12.0964 3.3412 11.8229C3.06771 11.5494 2.91406 11.1784 2.91406 10.7917V4.375C2.91406 3.98823 3.06771 3.61729 3.3412 3.3438C3.61469 3.07031 3.98562 2.91667 4.3724 2.91667H9.6224C10.0092 2.91667 10.3801 3.07031 10.6536 3.3438C10.9271 3.61729 11.0807 3.98823 11.0807 4.375V10.7917ZM9.91406 4.95833C9.91406 5.1904 9.82188 5.41296 9.65778 5.57705C9.49369 5.74115 9.27113 5.83333 9.03906 5.83333H4.95573C4.72366 5.83333 4.50111 5.74115 4.33701 5.57705C4.17292 5.41296 4.08073 5.1904 4.08073 4.95833C4.08073 4.72627 4.17292 4.50371 4.33701 4.33961C4.50111 4.17552 4.72366 4.08333 4.95573 4.08333H9.03906C9.27113 4.08333 9.49369 4.17552 9.65778 4.33961C9.82188 4.50371 9.91406 4.72627 9.91406 4.95833ZM7.8724 7.875C7.8724 8.10707 7.78021 8.32963 7.61611 8.49372C7.45202 8.65781 7.22946 8.75 6.9974 8.75H4.95573C4.72366 8.75 4.50111 8.65781 4.33701 8.49372C4.17292 8.32963 4.08073 8.10707 4.08073 7.875C4.08073 7.64294 4.17292 7.42038 4.33701 7.25628C4.50111 7.09219 4.72366 7 4.95573 7H6.9974C7.22946 7 7.45202 7.09219 7.61611 7.25628C7.78021 7.42038 7.8724 7.64294 7.8724 7.875Z" fill="#67686D"/>
</g>
<defs>
<clipPath id="clip0_19014_31015">
<rect width="14" height="14" fill="white"/>
</clipPath>
</defs>
</svg>
