<svg width="14" height="14" viewBox="0 0 14 14" fill="none" xmlns="http://www.w3.org/2000/svg">
<g clip-path="url(#clip0_19014_31012)">
<path d="M10.7917 0H3.20833C2.35776 0.00108048 1.54234 0.339447 0.940892 0.940892C0.339447 1.54234 0.00108048 2.35776 0 3.20833L0 10.7917C0.00108048 11.6422 0.339447 12.4577 0.940892 13.0591C1.54234 13.6606 2.35776 13.9989 3.20833 14H10.7917C11.6422 13.9989 12.4577 13.6606 13.0591 13.0591C13.6606 12.4577 13.9989 11.6422 14 10.7917V3.20833C13.9989 2.35776 13.6606 1.54234 13.0591 0.940892C12.4577 0.339447 11.6422 0.00108048 10.7917 0V0ZM12.2202 2.91667H9.33333V1.75H10.7917C11.1278 1.75007 11.4535 1.86622 11.7138 2.0788C11.9741 2.29139 12.153 2.58737 12.2202 2.91667ZM6.41667 1.75H7.58333V4.08333C7.58333 4.23804 7.52187 4.38642 7.41248 4.49581C7.30308 4.60521 7.15471 4.66667 7 4.66667C6.84529 4.66667 6.69692 4.60521 6.58752 4.49581C6.47812 4.38642 6.41667 4.23804 6.41667 4.08333V1.75ZM3.20833 1.75H4.66667V2.91667H1.77975C1.84697 2.58737 2.02586 2.29139 2.28618 2.0788C2.54649 1.86622 2.87224 1.75007 3.20833 1.75ZM10.7917 12.25H3.20833C2.82156 12.25 2.45063 12.0964 2.17714 11.8229C1.90365 11.5494 1.75 11.1784 1.75 10.7917V4.66667H4.7495C4.87682 5.16692 5.1672 5.6105 5.57475 5.92731C5.9823 6.24413 6.48379 6.41612 7 6.41612C7.51621 6.41612 8.0177 6.24413 8.42525 5.92731C8.8328 5.6105 9.12317 5.16692 9.2505 4.66667H12.25V10.7917C12.25 11.1784 12.0964 11.5494 11.8229 11.8229C11.5494 12.0964 11.1784 12.25 10.7917 12.25ZM11.0833 10.2083C11.0833 10.4404 10.9911 10.663 10.8271 10.8271C10.663 10.9911 10.4404 11.0833 10.2083 11.0833H8.45833C8.22627 11.0833 8.00371 10.9911 7.83961 10.8271C7.67552 10.663 7.58333 10.4404 7.58333 10.2083C7.58333 9.97627 7.67552 9.75371 7.83961 9.58961C8.00371 9.42552 8.22627 9.33333 8.45833 9.33333H10.2083C10.4404 9.33333 10.663 9.42552 10.8271 9.58961C10.9911 9.75371 11.0833 9.97627 11.0833 10.2083Z" fill="#67686D"/>
</g>
<defs>
<clipPath id="clip0_19014_31012">
<rect width="14" height="14" fill="white"/>
</clipPath>
</defs>
</svg>
