<svg width="12" height="12" viewBox="0 0 12 12" fill="none" xmlns="http://www.w3.org/2000/svg">
<g clip-path="url(#clip0_19014_27196)">
<path d="M11.3198 1.32617L2.90625 9.73749C3.08814 9.82613 3.28765 9.87272 3.48998 9.87377H4.93093C5.05147 9.87345 5.16712 9.92138 5.2521 10.0069L6.033 10.7873C6.45647 11.2137 7.03245 11.4537 7.63339 11.4542C7.88151 11.454 8.12792 11.4133 8.36295 11.3338C9.17318 11.0682 9.76252 10.3658 9.8834 9.52171L11.4184 2.23064C11.4917 1.92683 11.4568 1.60702 11.3198 1.32617Z" fill="#86D165"/>
<path d="M9.78271 0.580105L2.50936 2.11238C1.2666 2.28311 0.39755 3.42899 0.568285 4.67175C0.635723 5.16253 0.861759 5.61784 1.21196 5.96823L1.99241 6.74868C2.07771 6.83396 2.1256 6.94968 2.12552 7.07031V8.51125C2.12656 8.71359 2.17315 8.91311 2.2618 9.09498L10.674 0.681422C10.3976 0.545566 10.0826 0.509771 9.78271 0.580105Z" fill="#86D165"/>
</g>
<defs>
<clipPath id="clip0_19014_27196">
<rect width="10.9091" height="10.9091" fill="white" transform="translate(0.546875 0.544922)"/>
</clipPath>
</defs>
</svg>
