<svg width="14" height="14" viewBox="0 0 14 14" fill="none" xmlns="http://www.w3.org/2000/svg">
<path d="M4.08073 6.70833C4.08073 6.47627 4.17292 6.25371 4.33701 6.08961C4.5011 5.92552 4.72366 5.83333 4.95573 5.83333H6.70573C6.93779 5.83333 7.16035 5.92552 7.32445 6.08961C7.48854 6.25371 7.58073 6.47627 7.58073 6.70833C7.58073 6.9404 7.48854 7.16296 7.32445 7.32705C7.16035 7.49115 6.93779 7.58333 6.70573 7.58333H4.95573C4.72366 7.58333 4.5011 7.49115 4.33701 7.32705C4.17292 7.16296 4.08073 6.9404 4.08073 6.70833ZM4.95573 4.66667H9.03906C9.27113 4.66667 9.49369 4.57448 9.65778 4.41039C9.82187 4.24629 9.91406 4.02373 9.91406 3.79167C9.91406 3.5596 9.82187 3.33704 9.65778 3.17295C9.49369 3.00885 9.27113 2.91667 9.03906 2.91667H4.95573C4.72366 2.91667 4.5011 3.00885 4.33701 3.17295C4.17292 3.33704 4.08073 3.5596 4.08073 3.79167C4.08073 4.02373 4.17292 4.24629 4.33701 4.41039C4.5011 4.57448 4.72366 4.66667 4.95573 4.66667ZM12.2474 11.6515V13.3677C12.2474 13.4925 12.2103 13.6145 12.141 13.7183C12.0716 13.822 11.9731 13.9029 11.8578 13.9507C11.7424 13.9985 11.6155 14.011 11.4931 13.9866C11.3707 13.9623 11.2582 13.9022 11.17 13.8139L10.4974 13.1413L9.82481 13.8139C9.73654 13.9022 9.62409 13.9623 9.50167 13.9866C9.37925 14.011 9.25236 13.9985 9.13704 13.9507C9.02172 13.9029 8.92315 13.822 8.8538 13.7183C8.78444 13.6145 8.74742 13.4925 8.7474 13.3677V11.6515C8.21953 11.2542 7.84253 10.6892 7.67839 10.0492C7.51425 9.4093 7.57273 8.73255 7.84422 8.13026C8.11571 7.52796 8.58405 7.03596 9.17224 6.73514C9.76044 6.43432 10.4335 6.34258 11.0807 6.475V3.20833C11.0807 2.82156 10.9271 2.45063 10.6536 2.17714C10.3801 1.90365 10.0092 1.75 9.6224 1.75L4.37648 1.77217C4.18462 1.77163 3.99455 1.80895 3.81714 1.882C3.63974 1.95505 3.47849 2.06238 3.34264 2.19786C3.20679 2.33333 3.099 2.49428 3.02546 2.67148C2.95192 2.84868 2.91406 3.03864 2.91406 3.2305V10.2083C2.91406 10.5951 3.06771 10.966 3.3412 11.2395C3.61469 11.513 3.98562 11.6667 4.3724 11.6667H6.70573C6.93779 11.6667 7.16035 11.7589 7.32445 11.9229C7.48854 12.087 7.58073 12.3096 7.58073 12.5417C7.58073 12.7737 7.48854 12.9963 7.32445 13.1604C7.16035 13.3245 6.93779 13.4167 6.70573 13.4167H4.3724C3.52182 13.4156 2.7064 13.0772 2.10495 12.4758C1.50351 11.8743 1.16514 11.0589 1.16406 10.2083V3.2305C1.16514 2.37993 1.50351 1.5645 2.10495 0.963059C2.7064 0.361614 3.52182 0.0232471 4.3724 0.0221667L9.61831 0C10.4695 0.00030788 11.2858 0.338297 11.8881 0.939792C12.4903 1.54129 12.8293 2.35715 12.8307 3.20833V7.60142C13.0605 7.90483 13.2277 8.25082 13.3228 8.61933C13.4179 8.98784 13.4389 9.37156 13.3846 9.74825C13.3304 10.1249 13.2019 10.4871 13.0067 10.8138C12.8115 11.1405 12.5534 11.4252 12.2474 11.6515ZM9.33073 9.33333C9.33073 9.56408 9.39915 9.78964 9.52735 9.9815C9.65554 10.1734 9.83775 10.3229 10.0509 10.4112C10.2641 10.4995 10.4987 10.5226 10.725 10.4776C10.9513 10.4326 11.1592 10.3215 11.3224 10.1583C11.4855 9.99513 11.5966 9.78725 11.6416 9.56094C11.6867 9.33463 11.6636 9.10005 11.5753 8.88687C11.487 8.67369 11.3374 8.49148 11.1456 8.36329C10.9537 8.23509 10.7281 8.16667 10.4974 8.16667C10.188 8.16667 9.89123 8.28958 9.67244 8.50838C9.45365 8.72717 9.33073 9.02391 9.33073 9.33333Z" fill="#67686D"/>
</svg>
