<svg width="14" height="14" viewBox="0 0 14 14" fill="none" xmlns="http://www.w3.org/2000/svg">
<g clip-path="url(#clip0_19014_31021)">
<path d="M12.6963 3.39386L8.862 0.604943C8.34892 0.233305 7.73593 0.0245706 7.10267 0.00585938H7.08867H7.07758H7.063C7.02158 0.00585938 6.98075 0.00585938 6.93992 0.00585938H6.91892H6.90783H6.8985C6.26453 0.0241044 5.65079 0.233089 5.13742 0.605526L1.30375 3.39386C0.900527 3.68827 0.572354 4.07355 0.345839 4.51847C0.119325 4.96339 0.000842781 5.45543 0 5.95469C0.00123131 6.38626 0.173218 6.79981 0.478386 7.10498C0.783553 7.41014 1.1971 7.58213 1.62867 7.58336H6.125V13.125C6.125 13.3571 6.21719 13.5797 6.38128 13.7437C6.54538 13.9078 6.76794 14 7 14C7.23206 14 7.45462 13.9078 7.61872 13.7437C7.78281 13.5797 7.875 13.3571 7.875 13.125V7.58336H12.3713C12.8029 7.58213 13.2164 7.41014 13.5216 7.10498C13.8268 6.79981 13.9988 6.38626 14 5.95469C13.9992 5.45543 13.8807 4.96339 13.6542 4.51847C13.4276 4.07355 13.0995 3.68827 12.6963 3.39386ZM8.53883 5.83336H5.46117V5.73886C5.46092 5.47258 5.53946 5.21217 5.68692 4.99044C5.69917 4.97178 5.71025 4.95369 5.72133 4.93503L7 2.66061L8.27867 4.93561C8.28975 4.95428 8.30083 4.97236 8.31308 4.99103C8.46054 5.21276 8.53908 5.47316 8.53883 5.73944V5.83336ZM2.33333 4.80903L4.78683 3.02403L4.20992 4.05069C3.88339 4.55313 3.70991 5.13964 3.71058 5.73886V5.83336H1.75525C1.77305 5.63129 1.83383 5.43535 1.93353 5.25869C2.03323 5.08202 2.16955 4.92871 2.33333 4.80903ZM10.2888 5.83336V5.73886C10.2895 5.13964 10.116 4.55313 9.7895 4.05069L9.212 3.02403L11.6667 4.80903C11.8305 4.92871 11.9668 5.08202 12.0665 5.25869C12.1662 5.43535 12.227 5.63129 12.2448 5.83336H10.2888Z" fill="#67686D"/>
<path d="M2.67808 10.4993H1.75V9.04102C1.75 8.80895 1.65781 8.58639 1.49372 8.4223C1.32962 8.2582 1.10706 8.16602 0.875 8.16602C0.642936 8.16602 0.420376 8.2582 0.256282 8.4223C0.0921872 8.58639 0 8.80895 0 9.04102L0 13.1243C0 13.3564 0.0921872 13.579 0.256282 13.7431C0.420376 13.9072 0.642936 13.9993 0.875 13.9993C1.10706 13.9993 1.32962 13.9072 1.49372 13.7431C1.65781 13.579 1.75 13.3564 1.75 13.1243V12.2493H2.67808C2.74131 12.2495 2.80191 12.2747 2.84662 12.3194C2.89133 12.3641 2.91651 12.4247 2.91667 12.4879V13.1243C2.91667 13.3564 3.00885 13.579 3.17295 13.7431C3.33704 13.9072 3.5596 13.9993 3.79167 13.9993C4.02373 13.9993 4.24629 13.9072 4.41039 13.7431C4.57448 13.579 4.66667 13.3564 4.66667 13.1243V12.4879C4.66605 11.9607 4.45634 11.4553 4.08354 11.0825C3.71074 10.7097 3.2053 10.5 2.67808 10.4993Z" fill="#67686D"/>
<path d="M13.1276 8.16602C12.8955 8.16602 12.673 8.2582 12.5089 8.4223C12.3448 8.58639 12.2526 8.80895 12.2526 9.04102V10.4993H11.3245C10.7973 10.5 10.2919 10.7097 9.91906 11.0825C9.54626 11.4553 9.33656 11.9607 9.33594 12.4879V13.1243C9.33594 13.3564 9.42813 13.579 9.59222 13.7431C9.75631 13.9072 9.97887 13.9993 10.2109 13.9993C10.443 13.9993 10.6656 13.9072 10.8297 13.7431C10.9937 13.579 11.0859 13.3564 11.0859 13.1243V12.4879C11.0861 12.4247 11.1113 12.3641 11.156 12.3194C11.2007 12.2747 11.2613 12.2495 11.3245 12.2493H12.2526V13.1243C12.2526 13.3564 12.3448 13.579 12.5089 13.7431C12.673 13.9072 12.8955 13.9993 13.1276 13.9993C13.3597 13.9993 13.5822 13.9072 13.7463 13.7431C13.9104 13.579 14.0026 13.3564 14.0026 13.1243V9.04102C14.0026 8.80895 13.9104 8.58639 13.7463 8.4223C13.5822 8.2582 13.3597 8.16602 13.1276 8.16602Z" fill="#67686D"/>
</g>
<defs>
<clipPath id="clip0_19014_31021">
<rect width="14" height="14" fill="white"/>
</clipPath>
</defs>
</svg>
